<mxfile host="65bd71144e">
    <diagram id="j9IejB0jZV0AfYUX-Y1M" name="Page-1">
        <mxGraphModel dx="1002" dy="611" grid="1" gridSize="10" guides="1" tooltips="1" connect="1" arrows="1" fold="1" page="1" pageScale="1" pageWidth="850" pageHeight="1100" math="0" shadow="0">
            <root>
                <mxCell id="0"/>
                <mxCell id="1" parent="0"/>
                <mxCell id="2" value="1. Take the Molecular Dataset" style="rounded=1;whiteSpace=wrap;html=1;" vertex="1" parent="1">
                    <mxGeometry x="165" y="80" width="170" height="60" as="geometry"/>
                </mxCell>
                <mxCell id="3" value="2. Take the Phenotype Dataset" style="rounded=1;whiteSpace=wrap;html=1;" vertex="1" parent="1">
                    <mxGeometry x="425" y="80" width="180" height="60" as="geometry"/>
                </mxCell>
                <mxCell id="6" value="3. Transpose the Dataset" style="rounded=1;whiteSpace=wrap;html=1;" vertex="1" parent="1">
                    <mxGeometry x="170" y="190" width="160" height="60" as="geometry"/>
                </mxCell>
                <mxCell id="7" value="" style="endArrow=classic;html=1;exitX=0.5;exitY=1;exitDx=0;exitDy=0;" edge="1" parent="1" source="2" target="6">
                    <mxGeometry width="50" height="50" relative="1" as="geometry">
                        <mxPoint x="480" y="340" as="sourcePoint"/>
                        <mxPoint x="530" y="290" as="targetPoint"/>
                    </mxGeometry>
                </mxCell>
                <mxCell id="8" value="4. Select target Features" style="rounded=1;whiteSpace=wrap;html=1;" vertex="1" parent="1">
                    <mxGeometry x="440" y="190" width="150" height="60" as="geometry"/>
                </mxCell>
                <mxCell id="9" value="" style="endArrow=classic;html=1;exitX=0.5;exitY=1;exitDx=0;exitDy=0;" edge="1" parent="1" target="8" source="3">
                    <mxGeometry width="50" height="50" relative="1" as="geometry">
                        <mxPoint x="560" y="160" as="sourcePoint"/>
                        <mxPoint x="870" y="290" as="targetPoint"/>
                    </mxGeometry>
                </mxCell>
                <mxCell id="10" value="+" style="ellipse;whiteSpace=wrap;html=1;aspect=fixed;" vertex="1" parent="1">
                    <mxGeometry x="360" y="330" width="50" height="50" as="geometry"/>
                </mxCell>
                <mxCell id="11" value="" style="endArrow=classic;html=1;entryX=0;entryY=0.5;entryDx=0;entryDy=0;exitX=0.5;exitY=1;exitDx=0;exitDy=0;" edge="1" parent="1" source="6" target="10">
                    <mxGeometry width="50" height="50" relative="1" as="geometry">
                        <mxPoint x="210" y="260" as="sourcePoint"/>
                        <mxPoint x="530" y="320" as="targetPoint"/>
                        <Array as="points">
                            <mxPoint x="250" y="355"/>
                        </Array>
                    </mxGeometry>
                </mxCell>
                <mxCell id="12" value="" style="endArrow=classic;html=1;entryX=1;entryY=0.5;entryDx=0;entryDy=0;exitX=0.5;exitY=1;exitDx=0;exitDy=0;" edge="1" parent="1" source="8" target="10">
                    <mxGeometry width="50" height="50" relative="1" as="geometry">
                        <mxPoint x="550" y="280" as="sourcePoint"/>
                        <mxPoint x="370" y="365" as="targetPoint"/>
                        <Array as="points">
                            <mxPoint x="515" y="355"/>
                        </Array>
                    </mxGeometry>
                </mxCell>
                <mxCell id="13" value="5. Merge Datasets" style="rounded=1;whiteSpace=wrap;html=1;" vertex="1" parent="1">
                    <mxGeometry x="300" y="280" width="170" height="40" as="geometry"/>
                </mxCell>
                <mxCell id="14" value="6. Convert Object types to Numeric types" style="rounded=1;whiteSpace=wrap;html=1;points=[[0,0,0,0,0],[0,0.25,0,0,0],[0,0.5,0,0,0],[0,0.75,0,0,0],[0,1,0,0,0],[0.17,1,0,0,0],[0.25,0,0,0,0],[0.5,0,0,0,0],[0.5,1,0,0,0],[0.61,1,0,0,0],[0.75,0,0,0,0],[0.81,1,0,0,0],[1,0,0,0,0],[1,0.25,0,0,0],[1,0.5,0,0,0],[1,0.75,0,0,0],[1,1,0,0,0]];" vertex="1" parent="1">
                    <mxGeometry x="265" y="410" width="240" height="60" as="geometry"/>
                </mxCell>
                <mxCell id="15" value="" style="endArrow=classic;html=1;exitX=0.5;exitY=1;exitDx=0;exitDy=0;entryX=0.5;entryY=0;entryDx=0;entryDy=0;" edge="1" parent="1" source="10" target="14">
                    <mxGeometry width="50" height="50" relative="1" as="geometry">
                        <mxPoint x="480" y="340" as="sourcePoint"/>
                        <mxPoint x="530" y="290" as="targetPoint"/>
                    </mxGeometry>
                </mxCell>
                <mxCell id="8Iz_N88JesID-eJGwz7T-16" value="7. Check Feature Selection with Different Feature Counts" style="rounded=1;whiteSpace=wrap;html=1;" vertex="1" parent="1">
                    <mxGeometry x="420" y="480" width="170" height="40" as="geometry"/>
                </mxCell>
                <mxCell id="8Iz_N88JesID-eJGwz7T-17" value="Information Gain" style="rounded=1;whiteSpace=wrap;html=1;" vertex="1" parent="1">
                    <mxGeometry x="140" y="560" width="100" height="40" as="geometry"/>
                </mxCell>
                <mxCell id="8Iz_N88JesID-eJGwz7T-18" value="Correlation Coefficient&amp;nbsp;" style="rounded=1;whiteSpace=wrap;html=1;" vertex="1" parent="1">
                    <mxGeometry x="250" y="560" width="130" height="40" as="geometry"/>
                </mxCell>
                <mxCell id="8Iz_N88JesID-eJGwz7T-19" value="Chi-Square" style="rounded=1;whiteSpace=wrap;html=1;" vertex="1" parent="1">
                    <mxGeometry x="390" y="560" width="80" height="40" as="geometry"/>
                </mxCell>
                <mxCell id="8Iz_N88JesID-eJGwz7T-20" value="Feature Importance" style="rounded=1;whiteSpace=wrap;html=1;" vertex="1" parent="1">
                    <mxGeometry x="480" y="560" width="110" height="40" as="geometry"/>
                </mxCell>
                <mxCell id="8Iz_N88JesID-eJGwz7T-21" value="Feature Count - 25" style="rounded=1;whiteSpace=wrap;html=1;" vertex="1" parent="1">
                    <mxGeometry x="70" y="680" width="115" height="40" as="geometry"/>
                </mxCell>
                <mxCell id="8Iz_N88JesID-eJGwz7T-22" value="Feature Count - 50" style="rounded=1;whiteSpace=wrap;html=1;" vertex="1" parent="1">
                    <mxGeometry x="192.5" y="680" width="115" height="40" as="geometry"/>
                </mxCell>
                <mxCell id="8Iz_N88JesID-eJGwz7T-49" style="edgeStyle=orthogonalEdgeStyle;rounded=0;orthogonalLoop=1;jettySize=auto;html=1;exitX=0.5;exitY=1;exitDx=0;exitDy=0;endArrow=none;endFill=0;" edge="1" parent="1" source="8Iz_N88JesID-eJGwz7T-23">
                    <mxGeometry relative="1" as="geometry">
                        <mxPoint x="378" y="750" as="targetPoint"/>
                    </mxGeometry>
                </mxCell>
                <mxCell id="8Iz_N88JesID-eJGwz7T-23" value="Feature Count - 100" style="rounded=1;whiteSpace=wrap;html=1;" vertex="1" parent="1">
                    <mxGeometry x="315" y="680" width="125" height="40" as="geometry"/>
                </mxCell>
                <mxCell id="8Iz_N88JesID-eJGwz7T-24" value="Feature Count - 150" style="rounded=1;whiteSpace=wrap;html=1;" vertex="1" parent="1">
                    <mxGeometry x="445" y="680" width="120" height="40" as="geometry"/>
                </mxCell>
                <mxCell id="8Iz_N88JesID-eJGwz7T-25" value="Feature Count - 200" style="rounded=1;whiteSpace=wrap;html=1;" vertex="1" parent="1">
                    <mxGeometry x="570" y="680" width="125" height="40" as="geometry"/>
                </mxCell>
                <mxCell id="8Iz_N88JesID-eJGwz7T-26" value="" style="endArrow=classic;html=1;rounded=0;exitX=0.5;exitY=1;exitDx=0;exitDy=0;exitPerimeter=0;entryX=0.5;entryY=0;entryDx=0;entryDy=0;" edge="1" parent="1" source="14" target="8Iz_N88JesID-eJGwz7T-17">
                    <mxGeometry width="50" height="50" relative="1" as="geometry">
                        <mxPoint x="380" y="480" as="sourcePoint"/>
                        <mxPoint x="450" y="520" as="targetPoint"/>
                        <Array as="points">
                            <mxPoint x="385" y="530"/>
                            <mxPoint x="320" y="530"/>
                            <mxPoint x="190" y="530"/>
                        </Array>
                    </mxGeometry>
                </mxCell>
                <mxCell id="8Iz_N88JesID-eJGwz7T-27" value="" style="endArrow=classic;html=1;rounded=0;exitX=0.5;exitY=1;exitDx=0;exitDy=0;exitPerimeter=0;entryX=0.5;entryY=0;entryDx=0;entryDy=0;" edge="1" parent="1" source="14" target="8Iz_N88JesID-eJGwz7T-20">
                    <mxGeometry width="50" height="50" relative="1" as="geometry">
                        <mxPoint x="400" y="570" as="sourcePoint"/>
                        <mxPoint x="450" y="520" as="targetPoint"/>
                        <Array as="points">
                            <mxPoint x="385" y="530"/>
                            <mxPoint x="535" y="530"/>
                        </Array>
                    </mxGeometry>
                </mxCell>
                <mxCell id="8Iz_N88JesID-eJGwz7T-28" value="" style="endArrow=classic;html=1;rounded=0;exitX=0.5;exitY=1;exitDx=0;exitDy=0;exitPerimeter=0;entryX=0.5;entryY=0;entryDx=0;entryDy=0;" edge="1" parent="1" source="14" target="8Iz_N88JesID-eJGwz7T-18">
                    <mxGeometry width="50" height="50" relative="1" as="geometry">
                        <mxPoint x="400" y="570" as="sourcePoint"/>
                        <mxPoint x="450" y="520" as="targetPoint"/>
                        <Array as="points">
                            <mxPoint x="385" y="530"/>
                            <mxPoint x="315" y="530"/>
                        </Array>
                    </mxGeometry>
                </mxCell>
                <mxCell id="8Iz_N88JesID-eJGwz7T-29" value="" style="endArrow=classic;html=1;rounded=0;exitX=0.5;exitY=1;exitDx=0;exitDy=0;exitPerimeter=0;entryX=0.5;entryY=0;entryDx=0;entryDy=0;" edge="1" parent="1" source="14" target="8Iz_N88JesID-eJGwz7T-19">
                    <mxGeometry width="50" height="50" relative="1" as="geometry">
                        <mxPoint x="400" y="570" as="sourcePoint"/>
                        <mxPoint x="450" y="520" as="targetPoint"/>
                        <Array as="points">
                            <mxPoint x="385" y="530"/>
                            <mxPoint x="430" y="530"/>
                        </Array>
                    </mxGeometry>
                </mxCell>
                <mxCell id="8Iz_N88JesID-eJGwz7T-33" value="" style="endArrow=none;html=1;rounded=0;exitX=0.5;exitY=1;exitDx=0;exitDy=0;entryX=0.5;entryY=1;entryDx=0;entryDy=0;" edge="1" parent="1" source="8Iz_N88JesID-eJGwz7T-17" target="8Iz_N88JesID-eJGwz7T-20">
                    <mxGeometry width="50" height="50" relative="1" as="geometry">
                        <mxPoint x="370" y="550" as="sourcePoint"/>
                        <mxPoint x="380" y="640" as="targetPoint"/>
                        <Array as="points">
                            <mxPoint x="190" y="640"/>
                            <mxPoint x="535" y="640"/>
                        </Array>
                    </mxGeometry>
                </mxCell>
                <mxCell id="8Iz_N88JesID-eJGwz7T-34" value="" style="endArrow=none;html=1;rounded=0;exitX=0.5;exitY=1;exitDx=0;exitDy=0;" edge="1" parent="1" source="8Iz_N88JesID-eJGwz7T-18">
                    <mxGeometry width="50" height="50" relative="1" as="geometry">
                        <mxPoint x="370" y="550" as="sourcePoint"/>
                        <mxPoint x="315" y="640" as="targetPoint"/>
                    </mxGeometry>
                </mxCell>
                <mxCell id="8Iz_N88JesID-eJGwz7T-35" value="" style="endArrow=none;html=1;rounded=0;exitX=0.5;exitY=1;exitDx=0;exitDy=0;" edge="1" parent="1" source="8Iz_N88JesID-eJGwz7T-19">
                    <mxGeometry width="50" height="50" relative="1" as="geometry">
                        <mxPoint x="370" y="550" as="sourcePoint"/>
                        <mxPoint x="430" y="640" as="targetPoint"/>
                    </mxGeometry>
                </mxCell>
                <mxCell id="8Iz_N88JesID-eJGwz7T-37" value="" style="endArrow=classic;html=1;rounded=0;entryX=0.5;entryY=0;entryDx=0;entryDy=0;" edge="1" parent="1" target="8Iz_N88JesID-eJGwz7T-21">
                    <mxGeometry width="50" height="50" relative="1" as="geometry">
                        <mxPoint x="190" y="640" as="sourcePoint"/>
                        <mxPoint x="420" y="500" as="targetPoint"/>
                        <Array as="points">
                            <mxPoint x="128" y="640"/>
                        </Array>
                    </mxGeometry>
                </mxCell>
                <mxCell id="8Iz_N88JesID-eJGwz7T-38" value="" style="endArrow=classic;html=1;rounded=0;entryX=0.5;entryY=0;entryDx=0;entryDy=0;" edge="1" parent="1" target="8Iz_N88JesID-eJGwz7T-22">
                    <mxGeometry width="50" height="50" relative="1" as="geometry">
                        <mxPoint x="250" y="640" as="sourcePoint"/>
                        <mxPoint x="420" y="500" as="targetPoint"/>
                    </mxGeometry>
                </mxCell>
                <mxCell id="8Iz_N88JesID-eJGwz7T-39" value="" style="endArrow=classic;html=1;rounded=0;entryX=0.5;entryY=0;entryDx=0;entryDy=0;" edge="1" parent="1" target="8Iz_N88JesID-eJGwz7T-23">
                    <mxGeometry width="50" height="50" relative="1" as="geometry">
                        <mxPoint x="378" y="640" as="sourcePoint"/>
                        <mxPoint x="420" y="500" as="targetPoint"/>
                    </mxGeometry>
                </mxCell>
                <mxCell id="8Iz_N88JesID-eJGwz7T-40" value="" style="endArrow=classic;html=1;rounded=0;entryX=0.5;entryY=0;entryDx=0;entryDy=0;" edge="1" parent="1" target="8Iz_N88JesID-eJGwz7T-24">
                    <mxGeometry width="50" height="50" relative="1" as="geometry">
                        <mxPoint x="505" y="640" as="sourcePoint"/>
                        <mxPoint x="420" y="500" as="targetPoint"/>
                    </mxGeometry>
                </mxCell>
                <mxCell id="8Iz_N88JesID-eJGwz7T-41" value="" style="endArrow=classic;html=1;rounded=0;entryX=0.5;entryY=0;entryDx=0;entryDy=0;" edge="1" parent="1" target="8Iz_N88JesID-eJGwz7T-25">
                    <mxGeometry width="50" height="50" relative="1" as="geometry">
                        <mxPoint x="530" y="640" as="sourcePoint"/>
                        <mxPoint x="420" y="500" as="targetPoint"/>
                        <Array as="points">
                            <mxPoint x="633" y="640"/>
                        </Array>
                    </mxGeometry>
                </mxCell>
                <mxCell id="8Iz_N88JesID-eJGwz7T-53" value="" style="edgeStyle=orthogonalEdgeStyle;rounded=0;orthogonalLoop=1;jettySize=auto;html=1;" edge="1" parent="1" source="8Iz_N88JesID-eJGwz7T-42" target="8Iz_N88JesID-eJGwz7T-52">
                    <mxGeometry relative="1" as="geometry"/>
                </mxCell>
                <mxCell id="8Iz_N88JesID-eJGwz7T-42" value="8. Select the Best Feature Selection Method" style="rounded=1;whiteSpace=wrap;html=1;points=[[0,0,0,0,0],[0,0.25,0,0,0],[0,0.5,0,0,0],[0,0.75,0,0,0],[0,1,0,0,0],[0.17,1,0,0,0],[0.25,0,0,0,0],[0.5,0,0,0,0],[0.5,1,0,0,0],[0.61,1,0,0,0],[0.75,0,0,0,0],[0.81,1,0,0,0],[1,0,0,0,0],[1,0.25,0,0,0],[1,0.5,0,0,0],[1,0.75,0,0,0],[1,1,0,0,0]];" vertex="1" parent="1">
                    <mxGeometry x="257.5" y="780" width="240" height="60" as="geometry"/>
                </mxCell>
                <mxCell id="8Iz_N88JesID-eJGwz7T-43" value="" style="endArrow=none;html=1;rounded=0;exitX=0.5;exitY=1;exitDx=0;exitDy=0;entryX=0.5;entryY=1;entryDx=0;entryDy=0;endFill=0;" edge="1" parent="1" source="8Iz_N88JesID-eJGwz7T-21" target="8Iz_N88JesID-eJGwz7T-25">
                    <mxGeometry width="50" height="50" relative="1" as="geometry">
                        <mxPoint x="370" y="650" as="sourcePoint"/>
                        <mxPoint x="420" y="600" as="targetPoint"/>
                        <Array as="points">
                            <mxPoint x="128" y="750"/>
                            <mxPoint x="380" y="750"/>
                            <mxPoint x="633" y="750"/>
                        </Array>
                    </mxGeometry>
                </mxCell>
                <mxCell id="8Iz_N88JesID-eJGwz7T-45" value="" style="endArrow=classic;html=1;rounded=0;entryX=0.5;entryY=0;entryDx=0;entryDy=0;entryPerimeter=0;" edge="1" parent="1" target="8Iz_N88JesID-eJGwz7T-42">
                    <mxGeometry width="50" height="50" relative="1" as="geometry">
                        <mxPoint x="378" y="750" as="sourcePoint"/>
                        <mxPoint x="420" y="600" as="targetPoint"/>
                    </mxGeometry>
                </mxCell>
                <mxCell id="8Iz_N88JesID-eJGwz7T-48" value="" style="endArrow=none;html=1;rounded=0;exitX=0.5;exitY=1;exitDx=0;exitDy=0;" edge="1" parent="1" source="8Iz_N88JesID-eJGwz7T-22">
                    <mxGeometry width="50" height="50" relative="1" as="geometry">
                        <mxPoint x="370" y="650" as="sourcePoint"/>
                        <mxPoint x="250" y="750" as="targetPoint"/>
                    </mxGeometry>
                </mxCell>
                <mxCell id="8Iz_N88JesID-eJGwz7T-50" value="" style="endArrow=none;html=1;rounded=0;exitX=0.5;exitY=1;exitDx=0;exitDy=0;" edge="1" parent="1" source="8Iz_N88JesID-eJGwz7T-24">
                    <mxGeometry width="50" height="50" relative="1" as="geometry">
                        <mxPoint x="370" y="650" as="sourcePoint"/>
                        <mxPoint x="505" y="750" as="targetPoint"/>
                    </mxGeometry>
                </mxCell>
                <mxCell id="8Iz_N88JesID-eJGwz7T-52" value="9. Create new Datasets from 1 to Instances Count&amp;nbsp;" style="whiteSpace=wrap;html=1;rounded=1;" vertex="1" parent="1">
                    <mxGeometry x="237.5" y="880" width="280" height="50" as="geometry"/>
                </mxCell>
                <mxCell id="8Iz_N88JesID-eJGwz7T-54" value="SVM(Linear)" style="rounded=1;whiteSpace=wrap;html=1;" vertex="1" parent="1">
                    <mxGeometry x="70" y="1030" width="80" height="40" as="geometry"/>
                </mxCell>
                <mxCell id="8Iz_N88JesID-eJGwz7T-55" value="SVM(Poly)" style="rounded=1;whiteSpace=wrap;html=1;" vertex="1" parent="1">
                    <mxGeometry x="160" y="1030" width="67.5" height="40" as="geometry"/>
                </mxCell>
                <mxCell id="8Iz_N88JesID-eJGwz7T-56" value="Random Forest" style="rounded=1;whiteSpace=wrap;html=1;" vertex="1" parent="1">
                    <mxGeometry x="235" y="1030" width="95" height="40" as="geometry"/>
                </mxCell>
                <mxCell id="8Iz_N88JesID-eJGwz7T-57" value="Logistic Regression" style="rounded=1;whiteSpace=wrap;html=1;" vertex="1" parent="1">
                    <mxGeometry x="340" y="1030" width="120" height="40" as="geometry"/>
                </mxCell>
                <mxCell id="8Iz_N88JesID-eJGwz7T-58" value="Naive Bayes" style="rounded=1;whiteSpace=wrap;html=1;" vertex="1" parent="1">
                    <mxGeometry x="465" y="1030" width="90" height="40" as="geometry"/>
                </mxCell>
                <mxCell id="8Iz_N88JesID-eJGwz7T-59" value="10. Build Models using new Datasets" style="rounded=1;whiteSpace=wrap;html=1;" vertex="1" parent="1">
                    <mxGeometry x="405" y="940" width="170" height="40" as="geometry"/>
                </mxCell>
                <mxCell id="8Iz_N88JesID-eJGwz7T-60" value="ANN" style="rounded=1;whiteSpace=wrap;html=1;" vertex="1" parent="1">
                    <mxGeometry x="565" y="1030" width="55" height="40" as="geometry"/>
                </mxCell>
                <mxCell id="8Iz_N88JesID-eJGwz7T-61" value="XGBoost" style="rounded=1;whiteSpace=wrap;html=1;" vertex="1" parent="1">
                    <mxGeometry x="630" y="1030" width="55" height="40" as="geometry"/>
                </mxCell>
                <mxCell id="8Iz_N88JesID-eJGwz7T-62" value="" style="endArrow=classic;html=1;rounded=0;exitX=0.5;exitY=0;exitDx=0;exitDy=0;endFill=1;startArrow=classic;startFill=1;" edge="1" parent="1" source="8Iz_N88JesID-eJGwz7T-54">
                    <mxGeometry width="50" height="50" relative="1" as="geometry">
                        <mxPoint x="370" y="850" as="sourcePoint"/>
                        <mxPoint x="660" y="1030" as="targetPoint"/>
                        <Array as="points">
                            <mxPoint x="110" y="1000"/>
                            <mxPoint x="380" y="1000"/>
                            <mxPoint x="660" y="1000"/>
                        </Array>
                    </mxGeometry>
                </mxCell>
                <mxCell id="8Iz_N88JesID-eJGwz7T-63" value="" style="endArrow=none;html=1;rounded=0;exitX=0.5;exitY=1;exitDx=0;exitDy=0;" edge="1" parent="1" source="8Iz_N88JesID-eJGwz7T-52">
                    <mxGeometry width="50" height="50" relative="1" as="geometry">
                        <mxPoint x="370" y="850" as="sourcePoint"/>
                        <mxPoint x="378" y="1000" as="targetPoint"/>
                    </mxGeometry>
                </mxCell>
                <mxCell id="8Iz_N88JesID-eJGwz7T-64" value="" style="endArrow=classic;html=1;rounded=0;entryX=0.5;entryY=0;entryDx=0;entryDy=0;" edge="1" parent="1" target="8Iz_N88JesID-eJGwz7T-56">
                    <mxGeometry width="50" height="50" relative="1" as="geometry">
                        <mxPoint x="283" y="1000" as="sourcePoint"/>
                        <mxPoint x="420" y="800" as="targetPoint"/>
                    </mxGeometry>
                </mxCell>
                <mxCell id="8Iz_N88JesID-eJGwz7T-65" value="" style="endArrow=classic;html=1;rounded=0;entryX=0.5;entryY=0;entryDx=0;entryDy=0;" edge="1" parent="1" target="8Iz_N88JesID-eJGwz7T-55">
                    <mxGeometry width="50" height="50" relative="1" as="geometry">
                        <mxPoint x="194" y="1000" as="sourcePoint"/>
                        <mxPoint x="420" y="800" as="targetPoint"/>
                    </mxGeometry>
                </mxCell>
                <mxCell id="8Iz_N88JesID-eJGwz7T-66" value="" style="endArrow=classic;html=1;rounded=0;entryX=0.5;entryY=0;entryDx=0;entryDy=0;" edge="1" parent="1" target="8Iz_N88JesID-eJGwz7T-57">
                    <mxGeometry width="50" height="50" relative="1" as="geometry">
                        <mxPoint x="400" y="1000" as="sourcePoint"/>
                        <mxPoint x="420" y="800" as="targetPoint"/>
                    </mxGeometry>
                </mxCell>
                <mxCell id="8Iz_N88JesID-eJGwz7T-67" value="" style="endArrow=classic;html=1;rounded=0;entryX=0.5;entryY=0;entryDx=0;entryDy=0;" edge="1" parent="1" target="8Iz_N88JesID-eJGwz7T-58">
                    <mxGeometry width="50" height="50" relative="1" as="geometry">
                        <mxPoint x="510" y="1000" as="sourcePoint"/>
                        <mxPoint x="420" y="800" as="targetPoint"/>
                    </mxGeometry>
                </mxCell>
                <mxCell id="8Iz_N88JesID-eJGwz7T-69" value="" style="endArrow=classic;html=1;rounded=0;entryX=0.5;entryY=0;entryDx=0;entryDy=0;" edge="1" parent="1" target="8Iz_N88JesID-eJGwz7T-60">
                    <mxGeometry width="50" height="50" relative="1" as="geometry">
                        <mxPoint x="593" y="1000" as="sourcePoint"/>
                        <mxPoint x="420" y="800" as="targetPoint"/>
                    </mxGeometry>
                </mxCell>
                <mxCell id="8Iz_N88JesID-eJGwz7T-79" style="edgeStyle=orthogonalEdgeStyle;rounded=0;orthogonalLoop=1;jettySize=auto;html=1;exitX=0.5;exitY=1;exitDx=0;exitDy=0;exitPerimeter=0;entryX=0.5;entryY=0;entryDx=0;entryDy=0;entryPerimeter=0;" edge="1" parent="1" source="8Iz_N88JesID-eJGwz7T-70" target="8Iz_N88JesID-eJGwz7T-78">
                    <mxGeometry relative="1" as="geometry"/>
                </mxCell>
                <mxCell id="8Iz_N88JesID-eJGwz7T-70" value="11. Select the Best Model and Feature Count" style="rounded=1;whiteSpace=wrap;html=1;points=[[0,0,0,0,0],[0,0.25,0,0,0],[0,0.5,0,0,0],[0,0.75,0,0,0],[0,1,0,0,0],[0.17,1,0,0,0],[0.25,0,0,0,0],[0.5,0,0,0,0],[0.5,1,0,0,0],[0.61,1,0,0,0],[0.75,0,0,0,0],[0.81,1,0,0,0],[1,0,0,0,0],[1,0.25,0,0,0],[1,0.5,0,0,0],[1,0.75,0,0,0],[1,1,0,0,0]];" vertex="1" parent="1">
                    <mxGeometry x="252.5" y="1140" width="252.5" height="60" as="geometry"/>
                </mxCell>
                <mxCell id="8Iz_N88JesID-eJGwz7T-71" value="" style="endArrow=none;html=1;rounded=0;exitX=0.5;exitY=1;exitDx=0;exitDy=0;entryX=0.5;entryY=1;entryDx=0;entryDy=0;" edge="1" parent="1" source="8Iz_N88JesID-eJGwz7T-54" target="8Iz_N88JesID-eJGwz7T-61">
                    <mxGeometry width="50" height="50" relative="1" as="geometry">
                        <mxPoint x="370" y="1050" as="sourcePoint"/>
                        <mxPoint x="420" y="1000" as="targetPoint"/>
                        <Array as="points">
                            <mxPoint x="110" y="1110"/>
                            <mxPoint x="380" y="1110"/>
                            <mxPoint x="658" y="1110"/>
                        </Array>
                    </mxGeometry>
                </mxCell>
                <mxCell id="8Iz_N88JesID-eJGwz7T-72" value="" style="endArrow=none;html=1;rounded=0;exitX=0.5;exitY=1;exitDx=0;exitDy=0;" edge="1" parent="1" source="8Iz_N88JesID-eJGwz7T-55">
                    <mxGeometry width="50" height="50" relative="1" as="geometry">
                        <mxPoint x="370" y="1050" as="sourcePoint"/>
                        <mxPoint x="194" y="1110" as="targetPoint"/>
                    </mxGeometry>
                </mxCell>
                <mxCell id="8Iz_N88JesID-eJGwz7T-73" value="" style="endArrow=none;html=1;rounded=0;exitX=0.5;exitY=1;exitDx=0;exitDy=0;" edge="1" parent="1" source="8Iz_N88JesID-eJGwz7T-56">
                    <mxGeometry width="50" height="50" relative="1" as="geometry">
                        <mxPoint x="370" y="1050" as="sourcePoint"/>
                        <mxPoint x="283" y="1110" as="targetPoint"/>
                    </mxGeometry>
                </mxCell>
                <mxCell id="8Iz_N88JesID-eJGwz7T-74" value="" style="endArrow=none;html=1;rounded=0;exitX=0.5;exitY=1;exitDx=0;exitDy=0;" edge="1" parent="1" source="8Iz_N88JesID-eJGwz7T-57">
                    <mxGeometry width="50" height="50" relative="1" as="geometry">
                        <mxPoint x="370" y="1050" as="sourcePoint"/>
                        <mxPoint x="400" y="1110" as="targetPoint"/>
                    </mxGeometry>
                </mxCell>
                <mxCell id="8Iz_N88JesID-eJGwz7T-75" value="" style="endArrow=none;html=1;rounded=0;exitX=0.5;exitY=1;exitDx=0;exitDy=0;" edge="1" parent="1" source="8Iz_N88JesID-eJGwz7T-58">
                    <mxGeometry width="50" height="50" relative="1" as="geometry">
                        <mxPoint x="370" y="1050" as="sourcePoint"/>
                        <mxPoint x="510" y="1110" as="targetPoint"/>
                    </mxGeometry>
                </mxCell>
                <mxCell id="8Iz_N88JesID-eJGwz7T-76" value="" style="endArrow=none;html=1;rounded=0;exitX=0.5;exitY=1;exitDx=0;exitDy=0;" edge="1" parent="1" source="8Iz_N88JesID-eJGwz7T-60">
                    <mxGeometry width="50" height="50" relative="1" as="geometry">
                        <mxPoint x="370" y="1050" as="sourcePoint"/>
                        <mxPoint x="593" y="1110" as="targetPoint"/>
                    </mxGeometry>
                </mxCell>
                <mxCell id="8Iz_N88JesID-eJGwz7T-77" value="" style="endArrow=classic;html=1;rounded=0;entryX=0.5;entryY=0;entryDx=0;entryDy=0;entryPerimeter=0;" edge="1" parent="1" target="8Iz_N88JesID-eJGwz7T-70">
                    <mxGeometry width="50" height="50" relative="1" as="geometry">
                        <mxPoint x="378" y="1110" as="sourcePoint"/>
                        <mxPoint x="420" y="1000" as="targetPoint"/>
                    </mxGeometry>
                </mxCell>
                <mxCell id="8Iz_N88JesID-eJGwz7T-83" style="edgeStyle=orthogonalEdgeStyle;rounded=0;orthogonalLoop=1;jettySize=auto;html=1;exitX=0.5;exitY=1;exitDx=0;exitDy=0;exitPerimeter=0;entryX=0.5;entryY=0;entryDx=0;entryDy=0;entryPerimeter=0;" edge="1" parent="1" source="8Iz_N88JesID-eJGwz7T-78" target="8Iz_N88JesID-eJGwz7T-80">
                    <mxGeometry relative="1" as="geometry"/>
                </mxCell>
                <mxCell id="8Iz_N88JesID-eJGwz7T-78" value="12. Measure Accuracy, Precision, Recall, F1-Score, AUC, ROC, CM" style="rounded=1;whiteSpace=wrap;html=1;points=[[0,0,0,0,0],[0,0.25,0,0,0],[0,0.5,0,0,0],[0,0.75,0,0,0],[0,1,0,0,0],[0.17,1,0,0,0],[0.25,0,0,0,0],[0.5,0,0,0,0],[0.5,1,0,0,0],[0.61,1,0,0,0],[0.75,0,0,0,0],[0.81,1,0,0,0],[1,0,0,0,0],[1,0.25,0,0,0],[1,0.5,0,0,0],[1,0.75,0,0,0],[1,1,0,0,0]];" vertex="1" parent="1">
                    <mxGeometry x="257.5" y="1230" width="240" height="60" as="geometry"/>
                </mxCell>
                <mxCell id="8Iz_N88JesID-eJGwz7T-84" style="edgeStyle=orthogonalEdgeStyle;rounded=0;orthogonalLoop=1;jettySize=auto;html=1;exitX=0.5;exitY=1;exitDx=0;exitDy=0;exitPerimeter=0;entryX=0.5;entryY=0;entryDx=0;entryDy=0;entryPerimeter=0;" edge="1" parent="1" source="8Iz_N88JesID-eJGwz7T-80" target="8Iz_N88JesID-eJGwz7T-81">
                    <mxGeometry relative="1" as="geometry"/>
                </mxCell>
                <mxCell id="8Iz_N88JesID-eJGwz7T-80" value="13. Hyperparameter Tuning" style="rounded=1;whiteSpace=wrap;html=1;points=[[0,0,0,0,0],[0,0.25,0,0,0],[0,0.5,0,0,0],[0,0.75,0,0,0],[0,1,0,0,0],[0.17,1,0,0,0],[0.25,0,0,0,0],[0.5,0,0,0,0],[0.5,1,0,0,0],[0.61,1,0,0,0],[0.75,0,0,0,0],[0.81,1,0,0,0],[1,0,0,0,0],[1,0.25,0,0,0],[1,0.5,0,0,0],[1,0.75,0,0,0],[1,1,0,0,0]];" vertex="1" parent="1">
                    <mxGeometry x="286.25" y="1320" width="182.5" height="60" as="geometry"/>
                </mxCell>
                <mxCell id="8Iz_N88JesID-eJGwz7T-85" style="edgeStyle=orthogonalEdgeStyle;rounded=0;orthogonalLoop=1;jettySize=auto;html=1;exitX=0.5;exitY=1;exitDx=0;exitDy=0;exitPerimeter=0;entryX=0.5;entryY=0;entryDx=0;entryDy=0;entryPerimeter=0;" edge="1" parent="1" source="8Iz_N88JesID-eJGwz7T-81" target="8Iz_N88JesID-eJGwz7T-82">
                    <mxGeometry relative="1" as="geometry"/>
                </mxCell>
                <mxCell id="8Iz_N88JesID-eJGwz7T-81" value="14. Result Interpretation" style="rounded=1;whiteSpace=wrap;html=1;points=[[0,0,0,0,0],[0,0.25,0,0,0],[0,0.5,0,0,0],[0,0.75,0,0,0],[0,1,0,0,0],[0.17,1,0,0,0],[0.25,0,0,0,0],[0.5,0,0,0,0],[0.5,1,0,0,0],[0.61,1,0,0,0],[0.75,0,0,0,0],[0.81,1,0,0,0],[1,0,0,0,0],[1,0.25,0,0,0],[1,0.5,0,0,0],[1,0.75,0,0,0],[1,1,0,0,0]];" vertex="1" parent="1">
                    <mxGeometry x="286.25" y="1410" width="182.5" height="60" as="geometry"/>
                </mxCell>
                <mxCell id="8Iz_N88JesID-eJGwz7T-87" style="edgeStyle=orthogonalEdgeStyle;rounded=0;orthogonalLoop=1;jettySize=auto;html=1;exitX=0.5;exitY=1;exitDx=0;exitDy=0;exitPerimeter=0;entryX=0.5;entryY=0;entryDx=0;entryDy=0;entryPerimeter=0;" edge="1" parent="1" source="8Iz_N88JesID-eJGwz7T-82" target="8Iz_N88JesID-eJGwz7T-86">
                    <mxGeometry relative="1" as="geometry"/>
                </mxCell>
                <mxCell id="8Iz_N88JesID-eJGwz7T-82" value="15. Follow the Same Steps for Other Datasets" style="rounded=1;whiteSpace=wrap;html=1;points=[[0,0,0,0,0],[0,0.25,0,0,0],[0,0.5,0,0,0],[0,0.75,0,0,0],[0,1,0,0,0],[0.17,1,0,0,0],[0.25,0,0,0,0],[0.5,0,0,0,0],[0.5,1,0,0,0],[0.61,1,0,0,0],[0.75,0,0,0,0],[0.81,1,0,0,0],[1,0,0,0,0],[1,0.25,0,0,0],[1,0.5,0,0,0],[1,0.75,0,0,0],[1,1,0,0,0]];" vertex="1" parent="1">
                    <mxGeometry x="247.5" y="1500" width="260" height="60" as="geometry"/>
                </mxCell>
                <mxCell id="8Iz_N88JesID-eJGwz7T-86" value="16. Compare Results" style="rounded=1;whiteSpace=wrap;html=1;points=[[0,0,0,0,0],[0,0.25,0,0,0],[0,0.5,0,0,0],[0,0.75,0,0,0],[0,1,0,0,0],[0.17,1,0,0,0],[0.25,0,0,0,0],[0.5,0,0,0,0],[0.5,1,0,0,0],[0.61,1,0,0,0],[0.75,0,0,0,0],[0.81,1,0,0,0],[1,0,0,0,0],[1,0.25,0,0,0],[1,0.5,0,0,0],[1,0.75,0,0,0],[1,1,0,0,0]];" vertex="1" parent="1">
                    <mxGeometry x="287.5" y="1590" width="182.5" height="60" as="geometry"/>
                </mxCell>
            </root>
        </mxGraphModel>
    </diagram>
</mxfile>